<?xml version="1.0" encoding="UTF-8"?>
<svg width="299px" height="60px" viewBox="0 0 299 60" version="1.1" xmlns="http://www.w3.org/2000/svg" xmlns:xlink="http://www.w3.org/1999/xlink">
    <title>BECH / logo_bech_dark</title>
    <g id="Nueva-Home" stroke="none" stroke-width="1" fill="none" fill-rule="evenodd">
        <g id="BECH-/-logo_bech_dark">
            <g id="Group" transform="translate(276.150060, 25.384469)"></g>
            <g id="Group-2" transform="translate(67.753478, 18.559421)" fill="#2C3038" fill-rule="nonzero">
                <path d="M184.813115,15.8739896 L182.742595,27.3001946 C180.058587,28.4504837 176.22429,29.370715 172.696737,29.370715 C166.561861,29.370715 163.954539,26.763393 164.721399,22.6223523 C165.488258,18.3279396 169.705985,15.9506755 174.767257,16.0273614 C176.761091,16.0273614 178.448182,16.2574193 179.751843,16.7942208 L179.981901,15.5672458 C180.442017,13.0366098 179.06167,11.5795769 175.687488,11.5795769 C173.156852,11.5795769 170.856274,12.5764941 169.552613,13.4200395 C168.402324,12.806552 167.788836,11.6562629 167.865522,10.19923 C169.322555,8.97225497 172.773423,7.28516429 176.837777,7.28516429 C182.359165,7.28516429 185.963404,9.73911437 184.813115,15.8739896 Z M174.230455,25.459732 C175.84086,25.459732 177.297893,25.2296742 178.67824,24.7695586 L179.521785,20.3217741 C178.29481,19.7849725 176.684406,19.4782287 174.920629,19.4782287 C172.466679,19.4782287 170.626216,20.3217741 170.319472,22.3156085 C169.936043,24.232757 171.163018,25.459732 174.230455,25.459732 Z" id="Shape"></path>
                <path d="M208.815814,18.3279396 C210.042789,11.8863207 215.564177,7.20847835 222.005796,7.20847835 C228.447415,7.20847835 232.12834,11.8096347 230.901365,18.3279396 C229.751076,24.7695586 224.153002,29.370715 217.711383,29.370715 C211.34645,29.370715 207.665525,24.8462445 208.815814,18.3279396 Z M225.916779,18.3279396 C226.683638,14.3402708 224.843176,11.5795769 221.162251,11.5795769 C217.481326,11.5795769 214.643946,14.3402708 213.877086,18.3279396 C213.110227,22.3156085 214.95069,24.9996164 218.708301,24.9996164 C222.389226,24.9996164 225.226605,22.2389226 225.916779,18.3279396 Z" id="Shape"></path>
                <path d="M204.75146,1.76377662 L203.60117,7.97533775 C202.527567,7.51522211 201.223906,7.28516429 199.536816,7.28516429 C193.248569,7.28516429 187.420437,11.5795769 186.116776,18.4046256 C184.813115,25.459732 188.800784,29.294029 195.625833,29.294029 C199.000014,29.294029 202.680939,28.3737978 205.058203,27.2235087 L210.042789,0.23005782 L204.75146,1.76377662 Z M200.533733,24.3094429 C199.153386,24.7695586 197.696353,24.9996164 196.23932,24.9996164 C192.481709,24.9996164 190.334503,22.4689804 191.101362,18.3279396 C191.868222,14.2635848 195.089031,11.6562629 198.769956,11.6562629 C200.303675,11.6562629 201.607336,11.8096347 202.680939,12.5764941 L200.533733,24.3094429 Z" id="Shape"></path>
                <path d="M165.795002,8.12870963 L157.973036,8.12870963 L158.969953,2.6840079 L153.755309,4.14104075 L150.381128,22.2389226 C149.460897,27.2235087 152.374963,29.294029 156.899433,29.294029 C159.736813,29.294029 162.114077,28.1437399 163.57111,27.0701368 C163.647796,25.6897899 163.034308,24.3094429 162.114077,23.6192695 C161.347218,24.232757 159.890185,24.9996164 158.356466,24.9996164 C156.285945,24.9996164 154.982285,24.232757 155.519086,21.0886335 L157.129491,12.1163785 L164.951457,12.1163785 C165.2582,11.426205 165.411572,10.7360316 165.564944,10.0458581 C165.795002,9.43237061 165.871688,8.81888309 165.795002,8.12870963 Z" id="Path"></path>
                <path d="M129.062437,26.763393 C129.75261,25.1529883 130.826213,24.0026992 131.976503,23.3125257 C133.050106,24.232757 134.737196,25.3830461 138.034692,25.3830461 C140.948758,25.3830461 142.252418,24.3094429 142.482476,22.8524101 C142.712534,21.4720632 141.715617,20.6285178 138.034692,20.0917163 C134.430453,19.5549147 131.209643,18.1745678 131.976503,13.7267832 C132.666676,9.81580031 136.654345,7.20847835 141.945675,7.20847835 C145.703286,7.20847835 148.233922,8.28208151 149.384211,9.20231279 C148.847409,10.7360316 148.003864,11.9630066 146.853575,12.806552 C145.549914,11.9630066 143.556079,11.1961472 141.025443,11.1961472 C138.418121,11.1961472 137.114461,12.0396926 136.807717,13.3433535 C136.577659,14.7237005 137.344518,15.337188 140.795386,15.9506755 C145.166484,16.640849 148.233922,18.1745678 147.467062,22.3156085 C146.700203,26.6867071 142.865906,29.294029 137.114461,29.294029 C132.513304,29.370715 130.059354,27.7603102 129.062437,26.763393 Z" id="Path"></path>
                <path d="M132.20656,0.460115639 L114.108679,0.460115639 L114.108679,0.460115639 L112.344902,0.460115639 L113.341819,3.68092511 C113.418505,3.83429699 113.418505,3.98766887 113.418505,4.21772669 C113.418505,4.29441263 113.418505,4.37109857 113.418505,4.44778451 L108.970721,28.7572275 L127.452032,28.7572275 C127.835462,27.9903681 128.06552,27.2235087 128.218891,26.4566493 C128.372263,25.7664758 128.372263,24.9996164 128.295577,24.3094429 L114.798852,24.3094429 L116.255885,16.564163 L127.912148,16.564163 C128.218891,15.7973036 128.448949,15.0304442 128.602321,14.3402708 C128.755693,13.5734114 128.755693,12.806552 128.755693,12.1163785 L117.09943,12.1163785 L118.403091,5.13795797 L131.516387,5.13795797 C131.823131,4.37109857 132.053188,3.68092511 132.20656,2.91406572 C132.20656,1.99383444 132.283246,1.1502891 132.20656,0.460115639 Z" id="Path"></path>
                <path d="M85.8882527,18.3279396 C87.1152277,11.8863207 92.6366154,7.20847835 99.0782343,7.20847835 C105.519853,7.20847835 109.200778,11.8096347 107.973803,18.3279396 C106.823514,24.7695586 101.225441,29.370715 94.7838217,29.370715 C88.4188887,29.370715 84.7379636,24.8462445 85.8882527,18.3279396 Z M102.989217,18.3279396 C103.756077,14.3402708 101.915614,11.5795769 98.234689,11.5795769 C94.4770779,11.5795769 91.7163841,14.3402708 90.9495247,18.3279396 C90.1826653,22.3156085 92.0231279,24.9996164 95.7807389,24.9996164 C99.461664,24.9996164 102.222358,22.2389226 102.989217,18.3279396 Z" id="Shape"></path>
                <path d="M67.636999,18.3279396 C68.863974,11.6562629 74.4620476,7.20847835 80.7502947,7.20847835 C83.8944182,7.20847835 86.2716824,8.43545339 87.3452855,9.58574249 C86.731798,10.9660894 85.504823,12.3464363 83.9711042,13.1132957 C83.0508729,12.2697504 81.8238979,11.502891 79.9834353,11.502891 C75.9190805,11.502891 73.3884445,14.6470145 72.698271,18.2512537 C72.0080976,21.7788069 73.3884445,24.9996164 77.5294852,24.9996164 C79.9834353,24.9996164 81.4404682,24.0026992 82.5140713,23.2358398 C83.6643604,23.9260132 84.3545339,25.0763023 84.5079058,26.6100211 C82.897501,27.9136821 79.9834353,29.294029 76.6859399,29.294029 C70.0142631,29.370715 66.333338,25.3063602 67.636999,18.3279396 Z" id="Path"></path>
                <path d="M57.9745706,7.20847835 C55.9807361,7.20847835 54.0635876,7.59190805 52.3764969,8.12870963 C52.2231251,8.20539557 52.0697532,8.20539557 51.9930672,8.20539557 C51.8396954,8.20539557 51.6863235,8.20539557 51.5329516,8.12870963 L51.5329516,8.12870963 L48.0053984,7.05510647 L47.3919109,10.5059738 C47.3919109,10.5059738 47.3919109,10.5059738 47.3919109,10.5059738 L44.0177295,28.6805415 C44.7845889,28.8339134 45.6281342,28.9105993 46.4716796,28.9105993 C47.3152249,28.9105993 48.1587703,28.8339134 49.0023156,28.6805415 L51.9163813,12.9599238 C52.9899845,12.3464363 54.830447,11.8096347 56.7475955,11.8096347 C59.968405,11.8096347 61.5788097,13.2666676 60.8119503,17.1009646 L58.664744,28.7572275 C59.5082894,28.9105993 60.2751488,28.9872853 61.1186941,28.9872853 C61.8855535,28.9872853 62.8057848,28.9105993 63.6493301,28.7572275 L66.0265942,15.9506755 C66.9468255,11.1194613 64.7229333,7.20847835 57.9745706,7.20847835 Z" id="Path"></path>
                <path d="M43.4809279,15.8739896 L41.4104075,27.3001946 C38.7263996,28.4504837 34.8921026,29.370715 31.3645494,29.370715 C25.2296742,29.370715 22.6223523,26.763393 23.3892117,22.6223523 C24.1560711,18.3279396 28.3737978,15.9506755 33.4350698,16.0273614 C35.4289042,16.0273614 37.1159949,16.2574193 38.4196559,16.7942208 L38.6497137,15.5672458 C39.1098293,13.0366098 37.7294824,11.5795769 34.3553011,11.5795769 C31.8246651,11.5795769 29.5240869,12.5764941 28.2204259,13.4200395 C27.0701368,12.806552 26.4566493,11.6562629 26.5333352,10.19923 C27.9903681,8.97225497 31.4412354,7.28516429 35.5055902,7.28516429 C41.0269778,7.28516429 44.631217,9.73911437 43.4809279,15.8739896 Z M32.9749542,25.459732 C34.5853589,25.459732 36.0423917,25.2296742 37.4227387,24.7695586 L38.266284,20.3217741 C37.039309,19.7849725 35.4289042,19.4782287 33.6651276,19.4782287 C31.2111775,19.4782287 29.370715,20.3217741 29.0639712,22.3156085 C28.6038556,24.232757 29.9075166,25.459732 32.9749542,25.459732 Z" id="Shape"></path>
                <path d="M23.1591538,7.89865181 C24.0793851,2.91406572 21.3186913,0.0766859399 13.8801551,0.0766859399 C13.8034692,0.0766859399 13.8034692,0.0766859399 13.7267832,0.0766859399 L3.29749542,0 L4.44778451,3.37418136 C4.52447045,3.52755323 4.52447045,3.75761105 4.52447045,3.91098293 C4.52447045,4.06435481 4.52447045,4.14104075 4.44778451,4.29441263 L0,28.5271696 C2.14720632,28.9872853 4.90790015,29.2173431 8.66551121,29.2173431 C16.640849,29.2173431 21.0886335,25.9198477 22.0855507,20.5518319 C22.7757241,16.9475927 21.3186913,14.8770723 18.4813115,13.8801551 C20.8585756,12.9599238 22.6223523,11.1194613 23.1591538,7.89865181 Z M17.1009646,20.6285178 C16.4874771,23.7726414 14.3402708,25.2296742 9.66242843,25.2296742 C8.12870963,25.2296742 6.82504865,25.1529883 5.67475955,24.9996164 L7.28516429,16.4107911 L12.0396926,16.4107911 C15.7973036,16.3341052 17.6377662,17.7911381 17.1009646,20.6285178 Z M18.3279396,8.05202369 C17.867824,10.6593456 16.1040474,12.1930644 12.4231223,12.1930644 L8.05202369,12.1930644 L9.50905655,4.37109857 C10.8894035,4.21772669 12.1930644,4.21772669 13.4967254,4.21772669 C17.1009646,4.21772669 18.7880553,5.59807361 18.3279396,8.05202369 Z" id="Shape"></path>
            </g>
            <g id="Logo-Bech-/-Iso-Bech">
                <rect id="Rectangle" fill="#FFFFFF" x="0" y="0" width="60" height="60"></rect>
                <g id="iso" transform="translate(1.875000, 1.875000)" fill-rule="nonzero">
                    <path d="M5.00222086e-12,27.8814793 L20.0488754,19.2551653 L20.0488754,12.8624504 C26.523804,11.8611818 31.6725424,8.85737603 36.1191801,4.00507438 L56.25,20.2564339 L56.25,0.0770206612 L5.00222086e-12,0 L5.00222086e-12,27.8814793 Z" id="Path" fill="#FB1D38"></path>
                    <path d="M20.1268866,46.2123967 L36.1971913,46.2123967 L36.1971913,4.08209504 L36.1971913,4.08209504 L36.1971913,4.08209504 C31.6725424,9.01141736 26.523804,12.0152231 20.1268866,12.9394711 L20.1268866,12.9394711 L20.1268866,19.332186 L5.00222086e-12,27.8814793 L5.00222086e-12,34.1201529 L20.0488754,25.4168182 L20.0488754,19.2551653 L26.4457928,16.4824215 L26.4457928,22.6440744 L20.0488754,25.4168182 L20.0488754,31.5014504 L26.4457928,28.7287066 L26.4457928,34.8133388 L20.0488754,37.5860826 L20.0488754,31.5014504 L5.00222086e-12,40.2047851 L5.00222086e-12,46.2894174 L20.0488754,37.5860826 L20.0488754,46.2123967 L20.1268866,46.2123967 Z" id="Path" fill="#FFFFFF"></path>
                    <path d="M20.1268866,37.5860826 L20.1268866,46.2123967 L0,46.2123967 L20.1268866,37.5860826 Z M26.523804,28.7287066 L26.523804,34.8133388 L20.0488754,37.5860826 L20.0488754,31.5014504 L0,40.2047851 L0,34.1201529 L20.0488754,25.4168182 L20.0488754,19.332186 L26.523804,16.5594421 L26.523804,22.6440744 L20.1268866,25.4168182 L20.1268866,31.5014504 L26.523804,28.7287066 Z" id="Combined-Shape" fill="#FF9100"></path>
                    <polygon id="Path" fill="#FF9100" points="36.1971913 46.2123967 56.2460667 46.2123967 56.2460667 20.2564339 36.1971913 4.08209504"></polygon>
                    <polygon id="Path" fill="#0454B4" points="36.1971913 46.2123967 20.1268866 46.2123967 5.00222086e-12 46.2123967 5.00222086e-12 56.25 56.2460667 56.25 56.2460667 46.2123967"></polygon>
                </g>
            </g>
        </g>
    </g>
</svg>